<?xml version="1.0" standalone="no"?>
<!DOCTYPE svg PUBLIC "-//W3C//DTD SVG 20010904//EN"
 "http://www.w3.org/TR/2001/REC-SVG-20010904/DTD/svg10.dtd">
<svg version="1.0" xmlns="http://www.w3.org/2000/svg"
 width="260.000000pt" height="260.000000pt" viewBox="0 0 260.000000 260.000000"
 preserveAspectRatio="xMidYMid meet">
<metadata>
Created by potrace 1.14, written by Peter Selinger 2001-2017
</metadata>
<g transform="translate(0.000000,260.000000) scale(0.100000,-0.100000)"
fill="#000000" stroke="none">
<path d="M1153 2498 c4 -12 2 -15 -7 -12 -8 3 -23 -7 -35 -22 -11 -15 -21 -24
-21 -21 0 3 -15 -9 -33 -26 -18 -18 -31 -35 -29 -39 2 -5 -2 -8 -8 -8 -26 0
-55 -46 -57 -87 -1 -30 2 -41 10 -37 8 4 7 2 0 -7 -16 -16 -17 -33 -1 -23 7 5
8 3 3 -7 -13 -20 -16 -97 -5 -104 6 -4 7 -12 3 -18 -11 -18 -13 -90 -2 -103 6
-7 6 -15 2 -17 -11 -7 -10 -98 1 -116 6 -9 5 -12 -1 -8 -12 7 -11 -133 2 -152
5 -9 4 -12 -2 -8 -12 8 -10 -83 2 -104 5 -7 4 -10 -2 -6 -6 4 -10 -8 -11 -28
-1 -19 3 -37 8 -40 6 -4 7 -12 3 -18 -11 -18 -13 -96 -3 -102 6 -4 7 -12 3
-18 -13 -21 -13 -88 0 -81 8 5 8 3 0 -7 -17 -17 -17 -32 0 -23 9 6 9 4 0 -7
-15 -16 -17 -33 -3 -24 6 3 10 1 10 -4 0 -6 -9 -11 -21 -11 -11 0 -30 -5 -41
-11 -12 -7 -18 -7 -14 -1 3 6 -20 2 -51 -7 -32 -10 -64 -16 -71 -13 -6 2 -12
-1 -12 -6 0 -6 -8 -9 -17 -8 -10 2 -40 -3 -68 -10 -27 -8 -51 -14 -51 -14 -1
0 -1 11 -1 24 0 32 -97 128 -114 112 -9 -8 -10 -7 -4 4 4 8 -2 5 -14 -7 -11
-12 -21 -27 -21 -33 0 -10 -3 -11 -37 -14 -36 -3 -63 -27 -72 -64 -6 -20 -10
-41 -10 -46 0 -5 -4 -12 -9 -15 -6 -4 -8 -20 -3 -41 6 -33 5 -36 -34 -56 -135
-69 -230 -131 -213 -137 7 -2 24 3 38 12 25 17 57 29 155 63 66 22 89 29 92
29 2 0 21 6 44 14 22 8 43 14 47 14 4 -1 9 0 12 1 7 2 30 7 70 14 19 4 42 9
50 11 19 5 105 18 145 21 17 1 30 3 30 4 0 11 356 33 515 32 198 -2 326 -9
333 -17 4 -6 11 -4 17 5 5 8 10 10 10 5 0 -9 37 -14 128 -18 12 -1 22 -3 22
-6 0 -4 15 -7 33 -7 46 -2 126 -13 167 -23 19 -5 42 -9 50 -9 8 0 51 -10 95
-22 44 -12 87 -23 95 -25 77 -18 226 -78 250 -100 14 -12 16 -11 17 8 0 12 -1
17 -3 11 -3 -7 -18 1 -35 17 -17 16 -37 29 -45 29 -8 0 -14 4 -14 10 0 5 -11
12 -25 16 -14 3 -25 9 -25 13 0 3 -14 12 -32 20 -26 12 -29 16 -16 25 8 6 13
17 10 25 -3 8 0 11 7 7 6 -4 11 0 11 9 0 9 -4 13 -10 10 -9 -5 -15 9 -7 18 1
2 -9 14 -23 28 -14 13 -26 31 -26 39 -2 61 -76 110 -112 74 -18 -18 -24 -18
-48 3 -11 10 -25 19 -31 20 -12 3 -47 -29 -81 -75 -25 -33 -26 -33 -124 -14
-26 5 -50 7 -53 4 -3 -3 -5 -1 -5 4 0 6 -17 11 -37 12 -20 2 -43 8 -50 14 -7
6 -13 7 -13 2 0 -5 -5 -2 -10 6 -6 10 -10 11 -10 3 0 -9 -7 -10 -24 -3 -13 5
-27 6 -30 3 -3 -4 -6 -2 -6 4 0 6 -14 9 -31 7 -20 -3 -28 0 -23 7 4 8 1 8 -13
1 -11 -6 -25 -7 -33 -2 -7 4 -22 7 -32 5 -10 -2 -16 0 -13 5 3 4 6 28 6 52 1
23 7 49 13 57 8 11 8 13 0 8 -9 -5 -12 22 -12 98 0 76 3 103 12 98 7 -5 7 -2
-1 8 -10 13 -19 302 -14 433 1 16 -1 37 -4 47 -13 38 -22 8 -20 -66 1 -41 -3
-75 -7 -75 -5 0 -6 -6 -1 -12 12 -20 11 -188 -2 -188 -7 0 -7 -3 0 -8 7 -4 11
-87 12 -233 0 -220 0 -226 -19 -221 -11 2 -15 8 -9 11 6 4 9 66 9 167 -1 88 2
166 6 172 4 7 4 12 -1 12 -12 0 -10 224 2 232 7 5 7 8 0 8 -7 0 -11 46 -11
125 0 116 -5 147 -20 132 -7 -6 -7 -490 -1 -522 3 -11 2 -24 -1 -30 -9 -15
-10 -45 -1 -45 5 0 5 -10 0 -23 -5 -14 -5 -30 0 -40 7 -12 6 -17 -2 -17 -8 0
-8 -4 1 -15 9 -11 9 -15 1 -15 -7 0 -9 -5 -5 -12 10 -15 11 -108 2 -108 -4 0
-5 -6 -2 -14 4 -11 -10 -15 -69 -18 -41 -2 -73 0 -70 5 2 4 21 7 42 7 l37 0
-1 50 c-1 29 3 50 10 50 7 0 7 3 0 8 -7 5 -11 111 -10 317 0 171 -2 351 -5
402 l-5 91 -61 -57 -61 -58 0 -60 c0 -33 -3 -65 -7 -71 -4 -7 -3 -12 2 -12 10
0 9 -36 -1 -46 -3 -4 -2 -15 3 -24 7 -13 6 -20 -4 -23 -8 -3 -17 1 -20 9 -3 9
-1 12 4 9 6 -4 9 2 7 13 -3 18 -34 52 -76 81 -14 11 -17 18 -10 27 8 9 5 11
-12 7 -15 -4 -20 -3 -15 5 6 10 -9 16 -34 14 -10 -1 -9 37 1 43 5 4 9 1 9 -5
0 -6 4 -8 10 -5 6 4 7 -1 3 -11 -4 -12 -3 -15 5 -10 7 4 15 1 18 -8 3 -9 10
-14 14 -11 5 3 11 1 15 -5 9 -15 22 -12 29 6 4 10 -1 22 -11 31 -10 8 -12 12
-5 8 20 -10 19 74 -2 87 -8 6 -8 8 0 8 7 0 14 9 17 20 3 11 2 20 -2 20 -8 0
-6 84 3 99 4 6 2 11 -5 11 -8 0 -7 5 2 17 12 14 12 16 0 8 -11 -6 -13 -4 -8 8
3 9 2 19 -3 22 -6 4 -10 12 -10 18 0 7 4 6 10 -3 5 -8 12 -12 15 -8 4 3 -2 19
-12 34 -12 19 -13 25 -4 19 11 -6 13 -4 8 8 -3 9 -2 19 3 22 6 4 7 13 1 23 -5
9 -8 29 -6 44 2 16 -4 32 -13 40 -13 11 -15 10 -9 -4z m92 -725 c3 -10 1 -19
-4 -21 -6 -2 -9 -7 -7 -11 3 -4 -1 -8 -9 -8 -10 0 -11 5 -4 18 12 24 11 32 -3
23 -7 -4 -8 -3 -4 4 10 17 23 15 31 -5z m-12 -70 c-5 -12 -3 -14 8 -8 12 7 12
6 1 -7 -7 -9 -9 -19 -4 -22 11 -6 9 -39 -3 -46 -4 -3 -9 3 -11 13 -1 9 2 17 8
17 6 0 5 6 -2 15 -7 8 -9 15 -5 15 4 0 2 6 -4 14 -11 13 -10 16 16 25 1 1 -1
-6 -4 -16z m10 -140 c-5 -11 -8 -12 -13 -2 -5 7 -6 19 -3 26 5 11 8 12 13 2 5
-7 6 -19 3 -26z m-2 -32 c-9 -6 -10 -11 -2 -15 6 -4 9 -12 5 -17 -3 -5 -10 -7
-15 -3 -5 3 -7 10 -4 15 4 5 0 9 -7 9 -9 0 -9 3 2 10 8 5 20 10 25 10 6 0 4
-4 -4 -9z m4 -80 c1 -21 -3 -27 -14 -23 -10 4 -11 7 -3 10 7 2 10 8 6 13 -4 7
2 29 9 29 1 0 2 -13 2 -29z m-5 -51 c0 -5 -2 -10 -4 -10 -3 0 -8 5 -11 10 -3
6 -1 10 4 10 6 0 11 -4 11 -10z m-2 -70 c-7 -11 -14 -17 -17 -15 -2 3 1 11 7
18 7 8 8 18 4 22 -4 5 -1 5 5 1 10 -5 10 -11 1 -26z m2 -40 c-8 -15 -8 -20 1
-20 7 0 10 -3 6 -6 -3 -3 -10 -3 -16 1 -11 6 2 45 15 45 2 0 0 -9 -6 -20z m0
-50 c0 -5 -8 -10 -17 -10 -15 0 -16 2 -3 10 19 12 20 12 20 0z"/>
<path d="M1394 1990 c0 -89 -3 -150 -8 -150 -6 0 -5 -5 1 -11 8 -8 8 -20 3
-34 -5 -13 -6 -25 -3 -29 9 -9 9 -176 0 -176 -5 0 -5 -6 0 -12 10 -17 10 -49
1 -70 -5 -9 -5 -19 -1 -21 5 -3 8 -60 8 -126 -1 -92 2 -121 12 -121 8 0 13 13
14 33 0 17 2 41 4 51 2 11 0 26 -4 33 -4 7 -4 38 -1 69 3 30 3 57 -1 60 -5 3
-6 10 -4 17 9 24 12 97 4 97 -4 0 -5 8 -3 18 7 28 10 132 4 132 -7 0 -4 65 4
78 4 7 3 12 -3 12 -6 0 -6 11 -1 30 5 17 5 30 1 30 -8 0 -6 83 3 106 3 8 2 14
-2 14 -4 0 -7 21 -6 48 1 51 -4 72 -16 72 -4 0 -7 -68 -6 -150z"/>
<path d="M1638 1952 c-1 -4 -22 -22 -45 -40 -33 -26 -43 -40 -43 -63 0 -16 3
-29 8 -29 4 1 25 19 47 40 l39 39 41 -40 c22 -22 44 -38 50 -37 21 6 1 56 -40
96 -46 44 -51 47 -57 34z"/>
<path d="M1185 1920 c-3 -6 1 -7 9 -4 18 7 21 14 7 14 -6 0 -13 -4 -16 -10z"/>
<path d="M1593 1812 c-31 -27 -43 -45 -43 -65 0 -35 7 -34 54 8 42 37 46 37
90 -12 17 -18 34 -33 37 -33 4 0 9 16 11 35 2 19 1 35 -2 35 -3 0 -23 16 -43
35 -20 19 -43 35 -50 35 -6 -1 -31 -18 -54 -38z"/>
<path d="M1614 1733 c-16 -14 -37 -31 -47 -38 -13 -9 -17 -23 -15 -46 l3 -33
36 32 c20 17 39 29 43 25 3 -3 6 2 6 12 0 13 11 7 43 -26 24 -24 39 -47 34
-50 -6 -4 -20 4 -32 17 -25 27 -53 31 -61 9 -4 -8 -12 -15 -19 -15 -7 0 -16
-7 -19 -16 -5 -13 -9 -14 -21 -4 -13 11 -14 10 -9 -5 5 -12 4 -16 -4 -11 -6 3
-14 1 -18 -5 -4 -7 -3 -9 3 -6 6 4 13 -2 16 -13 3 -11 1 -23 -4 -26 -5 -3 -7
-10 -3 -15 3 -5 27 9 54 31 51 43 66 49 56 24 -3 -8 -2 -13 3 -9 13 7 43 -24
35 -37 -5 -7 -2 -8 6 -3 7 4 16 2 20 -5 4 -7 12 -10 18 -6 12 7 6 54 -9 72 -7
8 -6 14 1 19 5 3 10 22 10 40 0 27 -8 42 -36 67 -52 48 -57 49 -90 21z"/>
<path d="M1630 1535 c-7 -9 -19 -14 -27 -11 -8 3 -12 2 -9 -3 7 -10 -45 -57
-59 -53 -5 2 -4 -2 3 -9 6 -7 12 -21 12 -31 0 -25 5 -23 48 16 36 34 60 44 54
24 -1 -5 1 -7 6 -4 4 2 23 -11 41 -30 38 -38 44 -38 43 5 0 22 -12 40 -43 68
-51 47 -53 47 -69 28z"/>
<path d="M1623 1441 c1 -4 -15 -22 -35 -40 -35 -30 -43 -32 -39 -8 1 5 -4 5
-10 2 -8 -5 -8 -10 0 -18 6 -6 11 -24 11 -39 0 -15 3 -28 6 -28 3 0 22 16 42
35 20 19 42 35 47 35 6 0 28 -19 50 -41 l40 -42 5 34 c5 30 0 38 -39 74 -38
35 -84 56 -78 36z"/>
<path d="M1605 1316 c-17 -17 -42 -39 -55 -48 -14 -10 -20 -17 -15 -17 6 1 12
0 15 -1 19 -7 60 -9 60 -3 0 5 9 14 20 21 17 10 23 9 42 -13 12 -14 29 -25 38
-25 9 0 22 -6 29 -12 11 -11 12 -10 6 1 -5 8 -9 26 -10 39 0 13 -7 28 -15 32
-25 14 -60 47 -55 51 2 3 -4 5 -13 5 -9 0 -31 -13 -47 -30z"/>
<path d="M2100 842 c-19 -9 -56 -44 -83 -77 -26 -33 -51 -61 -56 -63 -4 -1
-21 14 -36 34 -22 29 -25 38 -14 45 11 7 9 9 -6 10 -29 2 -86 1 -115 -1 -21
-2 -22 -3 -5 -7 11 -3 42 -34 68 -70 l49 -64 -74 -87 c-48 -56 -85 -91 -105
-97 -25 -8 -30 -14 -23 -25 7 -10 10 -11 10 -2 0 6 3 11 8 11 43 -7 70 12 162
118 l45 51 33 -49 c18 -27 28 -49 22 -49 -5 0 -10 -3 -10 -7 0 -5 31 -8 70 -8
38 0 70 1 70 1 0 1 -15 17 -32 36 -39 41 -68 76 -68 84 0 3 -7 12 -15 20 -13
14 -8 23 42 87 71 90 76 95 110 112 23 12 24 15 8 15 -11 0 -36 -8 -55 -18z"/>
<path d="M1692 830 c-45 -28 -54 -53 -54 -149 0 -99 -10 -134 -42 -149 -39
-18 -111 -1 -102 24 3 8 0 13 -7 11 -18 -3 -22 184 -5 195 8 4 -7 8 -35 8
l-49 0 4 -106 c3 -100 4 -107 30 -129 15 -13 25 -25 23 -26 -9 -9 113 -7 142
2 59 19 73 49 73 156 0 102 15 148 52 162 12 4 17 10 12 14 -6 3 -24 -3 -42
-13z"/>
<path d="M283 758 c-31 -8 -63 -41 -63 -63 0 -5 5 -2 11 8 11 19 56 44 79 43
12 -1 15 -20 14 -110 0 -75 -4 -111 -12 -114 -7 -2 -12 -7 -12 -10 0 -8 184
-7 217 1 37 9 71 40 86 77 28 67 -3 136 -73 164 -45 18 -189 20 -247 4z m201
-18 c32 -12 49 -44 53 -103 2 -40 -2 -52 -25 -78 -25 -28 -52 -36 -108 -30
-13 1 -14 98 -1 118 4 6 3 14 -2 17 -5 3 -8 24 -8 46 1 38 2 40 33 40 18 0 44
-4 58 -10z"/>
<path d="M723 751 c17 -21 16 -223 -1 -229 -7 -2 -12 -7 -12 -10 0 -7 239 -7
244 0 2 1 6 19 9 38 l7 35 -18 -24 c-21 -26 -98 -46 -106 -27 -3 8 -5 8 -5 -1
-1 -6 -10 -9 -20 -6 -16 4 -19 13 -18 51 l2 47 38 1 c28 1 41 -4 52 -19 14
-20 15 -18 15 28 0 42 -2 46 -13 32 -16 -22 -84 -29 -92 -9 -3 7 -5 31 -5 53
0 35 2 39 26 39 17 0 28 -6 31 -20 8 -30 18 -24 18 10 l1 31 -83 -2 c-76 -1
-83 -3 -70 -18z"/>
<path d="M1060 760 c21 -13 24 -229 3 -237 -34 -13 -4 -18 105 -17 l117 1 -2
34 c-3 61 -4 65 -16 39 -19 -41 -47 -61 -84 -58 l-33 2 0 113 c0 96 2 113 18
122 13 8 -1 10 -53 11 -48 0 -65 -3 -55 -10z"/>
<path d="M2213 759 c14 -9 17 -26 17 -119 0 -93 -3 -110 -17 -119 -16 -9 -15
-10 8 -11 14 0 31 -6 38 -12 8 -7 11 -8 8 -2 -4 8 20 11 79 10 47 -1 90 1 94
4 14 9 31 60 20 60 -6 0 -10 -4 -10 -9 0 -14 -52 -31 -100 -34 l-45 -2 -1 53
c-2 54 3 61 25 40 11 -10 13 -10 7 0 -4 7 -1 12 8 12 25 0 46 -12 46 -26 0 -8
4 -14 9 -14 10 0 9 75 -1 86 -5 4 -8 0 -8 -9 0 -12 -9 -17 -27 -18 -29 -1 -56
1 -61 5 -5 6 -5 87 1 92 13 14 56 -7 60 -29 3 -14 5 -8 6 15 l1 37 -87 0 c-63
0 -83 -3 -70 -10z"/>
</g>
</svg>
