<svg height="512" viewBox="0 0 512 512" width="512" xmlns="http://www.w3.org/2000/svg"><g id="filled_outline" data-name="filled outline"><g fill="#007af6"><path d="m280 296v24l69.711 27.885a80 80 0 0 1 50.289 74.278v65.837h-304v-65.837a80 80 0 0 1 50.289-74.278l69.711-27.885v-24z"/><path d="m192 329.6v70.4h-32v-57.6z"/><path d="m336 342.4v57.6h-32v-70.4z"/></g><path d="m308.57 331.43-36.57 36.57-24-24-24 24-36.57-36.57 28.57-11.43h64z" fill="#009cf7"/><path d="m320 264-40 32h-64l-40-40v-112h144z" fill="#fdc9a6"/><circle cx="210" cy="178" fill="#683b0d" r="10"/><circle cx="286" cy="178" fill="#683b0d" r="10"/><g fill="#e6af89"><path d="m256 224h-1.365a22.661 22.661 0 0 1 -22.635-22.635v-17.365a8 8 0 0 1 16 0v17.365a6.643 6.643 0 0 0 6.635 6.635h1.365a8 8 0 0 1 0 16z"/><path d="m176 184h-12a12 12 0 0 1 -12-12v-36h24z"/><path d="m320 184h12a12 12 0 0 0 12-12v-36h-24z"/></g><path d="m280 320-32 24-32-24v-24h64z" fill="#fdc9a6"/><path d="m160 400-16 24v64h104 104v-64l-16-24z" fill="#fbb540"/><path d="m320 240-48-24h-48l-48 24v16l40 40h64l40-32z" fill="#683b0d"/><path d="m244.687 256h-12.687a8 8 0 0 1 0-16h12.687a19.187 19.187 0 0 0 13.656-5.657 8 8 0 0 1 11.314 11.314 35.082 35.082 0 0 1 -24.97 10.343z" fill="#e6af89"/><path d="m400 416a8 8 0 0 1 -8-8v-16a8 8 0 0 1 5.895-7.718l82.105-22.392v-33.89h-16a8 8 0 0 1 0-16h24a8 8 0 0 1 8 8v48a8 8 0 0 1 -5.895 7.718l-82.105 22.392v9.89a8 8 0 0 1 -8 8z" fill="#cbcbcb"/><path d="m416 488h-32v-56l-8-16 8-8h32l8 8-8 16z" fill="#fd7422"/><path d="m192 329.6v70.4h-32v-57.6z" fill="#422608"/><path d="m336 342.4v57.6h-32v-70.4z" fill="#422608"/><path d="m192 440h112v48h-112z" fill="#ea9d2d"/><rect fill="#02a437" height="40" rx="20" width="208" x="144" y="104"/><path d="m160.4 104a80.01 80.01 0 0 1 79.6-72h16a80.01 80.01 0 0 1 79.605 72z" fill="#027e2a"/><path d="m460 344h-144a4 4 0 0 1 -4-4v-40a4 4 0 0 1 4-4h144a4 4 0 0 1 4 4v40a4 4 0 0 1 -4 4z" fill="#d88f9a"/><path d="m460 336h-144a4 4 0 0 1 -4-4v-32a4 4 0 0 1 4-4h144a4 4 0 0 1 4 4v32a4 4 0 0 1 -4 4z" fill="#faa6b2"/><path d="m392 400h16v8h-16z" fill="#b9b9b9"/><circle cx="210" cy="178" r="10"/><circle cx="286" cy="178" r="10"/><path d="m232 256h12.687a35.082 35.082 0 0 0 24.97-10.343 8 8 0 0 0 -11.314-11.314 19.187 19.187 0 0 1 -13.656 5.657h-12.687a8 8 0 0 0 0 16z"/><path d="m488 312h-16v-12a12.013 12.013 0 0 0 -12-12h-144a12.013 12.013 0 0 0 -12 12v20.984l-16-6.4v-14.739l37-29.6a8 8 0 0 0 3-6.245v-72h4a20.023 20.023 0 0 0 20-20v-28c0-.138-.014-.273-.021-.409a27.975 27.975 0 0 0 -9.072-45.379 87.987 87.987 0 0 0 -86.907-74.212h-16a87.987 87.987 0 0 0 -86.907 74.212 27.975 27.975 0 0 0 -9.072 45.379c-.007.136-.021.271-.021.409v28a20.023 20.023 0 0 0 20 20h4v64a8 8 0 0 0 2.343 5.657l37.657 37.656v15.27l-64.683 25.874a87.578 87.578 0 0 0 -55.317 81.706v65.837a8 8 0 0 0 8 8h285.26a7.57 7.57 0 0 1 2.74 0h32a8 8 0 0 0 8-8v-54.111l7.155-14.311a8 8 0 0 0 -1.5-9.235l-8-8a8 8 0 0 0 -5.655-2.343h-8v-1.89l82.105-22.392a8 8 0 0 0 5.895-7.718v-48a8 8 0 0 0 -8-8zm-168-8h136v32h-136zm58.343 98.343-8 8a8 8 0 0 0 -1.5 9.235l7.157 14.311v46.111h-16v-56a7.993 7.993 0 0 0 -1.344-4.438l-14.656-21.984v-43.362l2.74 1.1a71.7 71.7 0 0 1 41.769 44.684h-4.509a8 8 0 0 0 -5.657 2.343zm-178.343-10.343v-36.687l18.343 18.344a8 8 0 0 0 11.314 0l18.343-18.343 18.343 18.343a8 8 0 0 0 11.314 0l18.343-18.344v36.687zm-32 0v-44.184l16-6.4v50.584zm56-88h48v12l-24 18-24-18zm88 47.3a11.922 11.922 0 0 0 4 .7h12v40h-16zm-17.664-16.95-22.336 22.336-11.821-11.821 21.021-15.765zm-38.336-126.35h-1.365a6.643 6.643 0 0 1 -6.635-6.635v-17.365a8 8 0 0 0 -16 0v17.365a22.554 22.554 0 0 0 .994 6.635h-8.994a7.994 7.994 0 0 0 -3.578.845l-36.422 18.211v-75.056h128v75.056l-36.422-18.211a7.994 7.994 0 0 0 -3.578-.845zm80-36a4 4 0 0 1 -4 4h-4v-24h8zm-144.466-113.246a71.822 71.822 0 0 1 48.466-18.754h16a72.037 72.037 0 0 1 70.216 56h-156.432a71.875 71.875 0 0 1 21.75-37.246zm-27.534 53.246h168a12 12 0 0 1 0 24h-168a12 12 0 0 1 0-24zm0 64a4 4 0 0 1 -4-4v-20h8v24zm20 68.944 41.889-20.944h44.222l41.889 20.944v15.211l-34.806 27.845h-57.881l-35.313-35.313zm30.8 84.156 21.024 15.768-11.824 11.818-22.336-22.335zm-110.8 93.063a71.657 71.657 0 0 1 45.26-66.851l2.74-1.1v43.362l-14.656 21.984a7.993 7.993 0 0 0 -1.344 4.442v56h-32zm96 57.837v-32h96v32zm112 0v-40a8 8 0 0 0 -8-8h-112a8 8 0 0 0 -8 8v40h-32v-53.578l12.281-18.422h167.438l12.281 18.422v53.578zm102.266-62.42-5.421 10.842a7.994 7.994 0 0 0 -.845 3.578v48h-16v-48a7.994 7.994 0 0 0 -.845-3.578l-5.421-10.842 1.579-1.58h25.374zm65.734-55.69-80.721 22.01a87.449 87.449 0 0 0 -26.133-31.9h86.854a12.013 12.013 0 0 0 12-12v-12h8z"/></g></svg>