<svg xmlns="http://www.w3.org/2000/svg" viewBox="0 0 201.91 311.2"><defs><style>.cls-1{isolation:isolate;}.cls-2{fill:#9d9d9c;mix-blend-mode:multiply;}.cls-3,.cls-8{fill:#fff;}.cls-3,.cls-4{stroke:#652918;stroke-width:4px;}.cls-15,.cls-17,.cls-3,.cls-4{stroke-linecap:round;stroke-linejoin:round;}.cls-4{fill:#adadad;}.cls-5{fill:#e60e63;}.cls-6{fill:#652918;}.cls-7{fill:#b3104d;}.cls-9{fill:#f8b78f;}.cls-10,.cls-11,.cls-12,.cls-13,.cls-14,.cls-15,.cls-17,.cls-9{stroke:#571d10;stroke-width:4.33px;}.cls-10,.cls-11,.cls-12,.cls-13,.cls-14,.cls-9{stroke-miterlimit:10;}.cls-10{fill:#ffca00;}.cls-11{fill:#5f5e5e;}.cls-12{fill:#007ec7;}.cls-13,.cls-17{fill:#00b7ed;}.cls-14{fill:#f7ae83;}.cls-15{fill:#841212;}.cls-16{fill:#571d10;}</style></defs><g class="cls-1"><g id="Capa_1" data-name="Capa 1"><ellipse class="cls-2" cx="115.97" cy="306.1" rx="54.19" ry="5.1"/><line class="cls-3" x1="122" y1="134.22" x2="122" y2="284.39"/><rect class="cls-4" x="100.29" y="285.6" width="43.42" height="9.64"/><rect class="cls-4" x="89.43" y="295.24" width="65.13" height="9.65"/><path class="cls-5" d="M218.79,197.7a2,2,0,0,1-1.73-1L179.11,131a2,2,0,0,1,0-2l37.95-65.74a2,2,0,0,1,1.73-1H294.7a2,2,0,0,1,1.73,1l38,65.74a2,2,0,0,1,0,2l-38,65.74a2,2,0,0,1-1.73,1Z" transform="translate(-134.74 -60.22)"/><path class="cls-6" d="M294.7,64.22,332.65,130,294.7,195.7H218.79L180.84,130l37.95-65.74H294.7m0-4H218.79a4,4,0,0,0-3.46,2l-38,65.74a4,4,0,0,0,0,4l38,65.74a4,4,0,0,0,3.46,2H294.7a4,4,0,0,0,3.46-2l38-65.74a4,4,0,0,0,0-4l-38-65.74a4,4,0,0,0-3.46-2Z" transform="translate(-134.74 -60.22)"/><path class="cls-7" d="M294.7,64.22H282a70.22,70.22,0,0,1,16.22,44.66c0,38.58-32.21,70.77-70.77,70.77a69,69,0,0,1-19.51-2.82l10.9,18.87H294.7L332.65,130Z" transform="translate(-134.74 -60.22)"/><path class="cls-5" d="M224.85,187.2a2,2,0,0,1-1.73-1L191.23,131a2,2,0,0,1,0-2l31.89-55.23a2,2,0,0,1,1.73-1h63.79a2,2,0,0,1,1.73,1L322.26,129a2,2,0,0,1,0,2L290.37,186.2a2,2,0,0,1-1.73,1Z" transform="translate(-134.74 -60.22)"/><path class="cls-6" d="M288.64,74.73,320.53,130,288.64,185.2H224.85L193,130l31.89-55.23h63.79m0-4H224.85a4,4,0,0,0-3.46,2L189.49,128a4,4,0,0,0,0,4l31.9,55.24a4,4,0,0,0,3.46,2h63.79a4,4,0,0,0,3.46-2L324,132a4,4,0,0,0,0-4L292.1,72.73a4,4,0,0,0-3.46-2Z" transform="translate(-134.74 -60.22)"/><path class="cls-7" d="M292,81.07a69.25,69.25,0,0,1,5.86,27.81c0,38.58-32.19,70.77-70.76,70.77-2,0-4-.1-5.91-.27l3.37,5.82h63.77L320.23,130Z" transform="translate(-134.74 -60.22)"/><path class="cls-8" d="M216.94,128.11l13.68-32.35h8.21v32.35h3.55V135h-3.55v8.69H231.3V135H216.94Zm14.36,0V110.39l-7.45,17.72Z" transform="translate(-134.74 -60.22)"/><path class="cls-8" d="M245.18,107.25c0-7.66,4-12,11.42-12s11.43,4.37,11.43,12v24.89c0,7.67-4,12-11.43,12s-11.42-4.37-11.42-12Zm7.53,25.38c0,3.42,1.51,4.72,3.89,4.72s3.9-1.3,3.9-4.72V106.77c0-3.43-1.5-4.72-3.9-4.72s-3.89,1.29-3.89,4.72Z" transform="translate(-134.74 -60.22)"/><path class="cls-8" d="M271.1,128.11l13.68-32.35H293v32.35h3.56V135H293v8.69h-7.52V135H271.1Zm14.37,0V110.39L278,128.11Z" transform="translate(-134.74 -60.22)"/><path class="cls-8" d="M232.44,157.66h4.34v2.87h-4.34v5.89h5.46v2.88h-8.62V149.18h8.62v2.88h-5.46Z" transform="translate(-134.74 -60.22)"/><path class="cls-8" d="M246.47,169.3a6.5,6.5,0,0,1-.28-2.47v-3.17c0-1.86-.63-2.55-2.07-2.55H243v8.19h-3.17V149.18h4.78c3.28,0,4.68,1.52,4.68,4.63v1.57c0,2.08-.67,3.42-2.07,4.09,1.58.67,2.1,2.19,2.1,4.27v3.11a5.92,5.92,0,0,0,.35,2.45ZM243,152.06v6.18h1.23c1.19,0,1.9-.53,1.9-2.14v-2c0-1.44-.5-2.06-1.61-2.06Z" transform="translate(-134.74 -60.22)"/><path class="cls-8" d="M258,169.3a6.29,6.29,0,0,1-.28-2.47v-3.17c0-1.86-.64-2.55-2.07-2.55h-1.09v8.19h-3.16V149.18h4.76c3.28,0,4.69,1.52,4.69,4.63v1.57c0,2.08-.66,3.42-2.07,4.09,1.58.67,2.11,2.19,2.11,4.27v3.11a6.1,6.1,0,0,0,.33,2.45Zm-3.44-17.24v6.18h1.23c1.18,0,1.9-.53,1.9-2.14v-2c0-1.44-.5-2.06-1.62-2.06Z" transform="translate(-134.74 -60.22)"/><path class="cls-8" d="M262.72,154c0-3.22,1.7-5.07,4.8-5.07s4.81,1.85,4.81,5.07v10.46c0,3.22-1.7,5.06-4.81,5.06s-4.8-1.84-4.8-5.06Zm3.17,10.66c0,1.44.63,2,1.63,2s1.65-.54,1.65-2V153.81c0-1.44-.64-2-1.65-2s-1.63.54-1.63,2Z" transform="translate(-134.74 -60.22)"/><path class="cls-8" d="M281,169.3a6.29,6.29,0,0,1-.28-2.47v-3.17c0-1.86-.63-2.55-2.07-2.55h-1.1v8.19h-3.16V149.18h4.78c3.28,0,4.68,1.52,4.68,4.63v1.57c0,2.08-.66,3.42-2.07,4.09,1.59.67,2.1,2.19,2.1,4.27v3.11a5.76,5.76,0,0,0,.35,2.45Zm-3.45-17.24v6.18h1.25c1.17,0,1.88-.53,1.88-2.14v-2c0-1.44-.49-2.06-1.59-2.06Z" transform="translate(-134.74 -60.22)"/><path class="cls-9" d="M250.17,206.29c.7,1.28-.32,3.12-2.4,4.85,5.33,1.21,9.14,4.57,9,8.37-.2,4.59-6,7.36-13.06,7s-12.51-5-12.31-9.58,2.54-7.65,7.47-9.83S249.09,204.26,250.17,206.29Z" transform="translate(-134.74 -60.22)"/><path class="cls-10" d="M184.26,223.08l-22.78-34.64a8.74,8.74,0,0,1,14.61-9.61l20.84,31.65,38.66-2.88.09,17.17L193,228.36A8.73,8.73,0,0,1,184.26,223.08Z" transform="translate(-134.74 -60.22)"/><path class="cls-10" d="M147.86,251.21V175.58a14.86,14.86,0,0,1,14.87-14.86h16.56a14.88,14.88,0,0,1,14.87,14.86v75.63Z" transform="translate(-134.74 -60.22)"/><path class="cls-11" d="M175.76,367.57c0-1,0-7.22,0-7.9,0-1.05-.48-3.73,3-3.73h12.28a9.64,9.64,0,0,1,9.63,9.64,8.79,8.79,0,0,1-.21,2Z" transform="translate(-134.74 -60.22)"/><path class="cls-12" d="M157.52,161.67v18.62h26.75v-18.7a14.88,14.88,0,0,1,9.89,14l0,180.48h-17.4v-89.3H165.33v89.3h-17.4l-.07-180.48A14.86,14.86,0,0,1,157.52,161.67Z" transform="translate(-134.74 -60.22)"/><path class="cls-11" d="M145.3,367.57c0-1,0-7.22,0-7.9,0-1.05-.49-3.73,3-3.73h12.28a9.64,9.64,0,0,1,9.64,9.64,10.92,10.92,0,0,1-.2,2Z" transform="translate(-134.74 -60.22)"/><rect class="cls-13" x="25.6" y="129.65" width="23.49" height="16.75"/><path class="cls-14" d="M162.7,163.05a8.88,8.88,0,0,0,8.89,8.87h0a8.85,8.85,0,0,0,8.85-8.87V145a8.86,8.86,0,0,0-8.85-8.88h0A8.89,8.89,0,0,0,162.7,145Z" transform="translate(-134.74 -60.22)"/><path class="cls-9" d="M144.53,116.54A34.59,34.59,0,0,0,172.09,157h0a34.59,34.59,0,0,0,40.44-27.56l3.23-17A34.62,34.62,0,0,0,188.21,72h0a34.62,34.62,0,0,0-40.46,27.57Z" transform="translate(-134.74 -60.22)"/><path class="cls-15" d="M205.18,103.79s-13.3,13.44-42.07,8c-7.86-1.48-10.17,4.69-11.82,13.42-.3,1.55-1.39,3.92-4.07,3.41L144.3,128a33.74,33.74,0,0,1,.23-11.5l3.22-17a34.61,34.61,0,1,1,68,12.89l-1.41,7.44S202.54,117.69,205.18,103.79Z" transform="translate(-134.74 -60.22)"/><path class="cls-16" d="M196.38,129.73a3.72,3.72,0,1,0,4.35-3A3.73,3.73,0,0,0,196.38,129.73Z" transform="translate(-134.74 -60.22)"/><path class="cls-16" d="M167.33,124.21a3.72,3.72,0,1,0,4.36-3A3.72,3.72,0,0,0,167.33,124.21Z" transform="translate(-134.74 -60.22)"/><path class="cls-16" d="M181.48,137.18l4.46.86a.94.94,0,0,0,.81-.21.91.91,0,0,0,.3-.77l-.5-7.94a.93.93,0,0,0-1-.87,1,1,0,0,0-.89,1l.45,6.73-3.29-.61a.93.93,0,1,0-.35,1.82Z" transform="translate(-134.74 -60.22)"/><path class="cls-16" d="M182.13,148.27a10.92,10.92,0,0,0,8.16-1.69,1.3,1.3,0,0,0,.33-1.8,1.28,1.28,0,0,0-1.81-.35,8.26,8.26,0,0,1-11.48-2.19,1.31,1.31,0,0,0-2.16,1.48A10.86,10.86,0,0,0,182.13,148.27Z" transform="translate(-134.74 -60.22)"/><path class="cls-10" d="M144.79,106.34,146,99.89a36.24,36.24,0,1,1,71.21,13.5L216,119.84Z" transform="translate(-134.74 -60.22)"/><polygon class="cls-10" points="9.24 50.4 88.42 65.42 89.2 61.26 10.03 46.24 9.24 50.4"/><line class="cls-10" x1="72.09" y1="20.23" x2="70.6" y2="28.1"/><line class="cls-10" x1="66.53" y1="16.44" x2="63.12" y2="34.35"/><line class="cls-10" x1="60.9" y1="12.96" x2="56.65" y2="35.31"/><line class="cls-10" x1="34.83" y1="13.16" x2="33.34" y2="21.01"/><line class="cls-10" x1="41.73" y1="10.04" x2="38.01" y2="29.6"/><line class="cls-10" x1="47.92" y1="10.49" x2="43.68" y2="32.86"/><line class="cls-10" x1="54.43" y1="11.59" x2="48.79" y2="41.3"/><polygon class="cls-17" points="50.64 174.35 89.17 174.25 143.13 134.54 104.61 134.64 50.64 174.35"/><path class="cls-9" d="M229.71,196.25c.76,1.26-.17,3.14-2.19,5,5.39,1,9.34,4.15,9.34,8,0,4.58-5.7,7.6-12.74,7.6s-12.71-4.43-12.71-9,2.19-7.75,7-10.15S228.54,194.28,229.71,196.25Z" transform="translate(-134.74 -60.22)"/><path class="cls-10" d="M162.88,216.16l-24.31-33.58a8.75,8.75,0,0,1,14.17-10.26L175,203l38.51-4.61.86,17.14-42.47,5.5A8.72,8.72,0,0,1,162.88,216.16Z" transform="translate(-134.74 -60.22)"/></g></g></svg>