<svg height="512" viewBox="0 0 512 512" width="512" xmlns="http://www.w3.org/2000/svg"><g id="filled_outline" data-name="filled outline"><path d="m424 464a8 8 0 0 1 -8-8v-48a8 8 0 0 1 16 0v48a8 8 0 0 1 -8 8z" fill="#683b0d"/><path d="m216 192h96v24h-96z" fill="#41b2ff"/><path d="m352 456h-176v-88l88-88 88 88z" fill="#eaeae8"/><path d="m264 376a24 24 0 0 1 24 24v56a0 0 0 0 1 0 0h-48a0 0 0 0 1 0 0v-56a24 24 0 0 1 24-24z" fill="#5ebef7"/><path d="m280 400v56h-40v-56a24 24 0 0 1 20-23.66 23.993 23.993 0 0 1 20 23.66z" fill="#5ebef7"/><path d="m280 400v56h-40v-56a24 24 0 0 1 20-23.66 23.993 23.993 0 0 1 20 23.66z" fill="#41b2ff"/><g fill="#5ebef7"><path d="m184 248h32v-88l-16-8-16 8z"/><path d="m248 248h32v-88l-16-8-16 8z"/><path d="m312 248h32v-88l-16-8-16 8z"/></g><path d="m24 104h72l48 48 3.746 14.986a22.463 22.463 0 0 0 21.792 17.014 22.463 22.463 0 0 0 22.462-22.462v-12.56a46.855 46.855 0 0 0 -6.677-24.106l-17.323-28.872 24-24 32 40v16a32 32 0 0 0 32 32 16 16 0 0 0 16-16v-48l-56-72h-192z" fill="#f6bb92"/><rect fill="#79a73a" height="112" rx="32" width="64" x="392" y="296"/><circle cx="80" cy="368" fill="#029532" r="56"/><path d="m101.657 362.343a8 8 0 0 0 -11.314 0l-10.343 10.344-10.343-10.344a8 8 0 0 0 -11.314 11.314l13.657 13.656v68.687a8 8 0 0 0 16 0v-68.687l13.657-13.656a8 8 0 0 0 0-11.314z" fill="#683b0d"/><path d="m24 456h464v32h-464z" fill="#97661d"/><path d="m488 448h-56v-32.8a40.067 40.067 0 0 0 32-39.2v-48a40 40 0 0 0 -80 0v48a40.067 40.067 0 0 0 32 39.2v32.8h-56v-80a8 8 0 0 0 -2.343-5.657l-88-88a8 8 0 0 0 -11.314 0l-88 88a8 8 0 0 0 -2.343 5.657v80h-80v-16.518a64 64 0 1 0 -16 0v16.518h-48a8 8 0 0 0 -8 8v32a8 8 0 0 0 8 8h464a8 8 0 0 0 8-8v-32a8 8 0 0 0 -8-8zm-88-72v-48a24 24 0 0 1 48 0v48a24 24 0 0 1 -48 0zm-368-8a48 48 0 1 1 56 47.321v-28.008l13.657-13.656a8 8 0 0 0 -11.314-11.314l-10.343 10.344-10.343-10.344a8 8 0 0 0 -11.314 11.314l13.657 13.656v28.008a48.07 48.07 0 0 1 -40-47.321zm152 3.314 80-80 80 80v76.686h-48v-48a32 32 0 0 0 -64 0v48h-48zm96 76.686h-32v-48a16 16 0 0 1 32 0zm200 32h-448v-16h448z"/><path d="m24 112h68.687l44.089 44.09 3.209 12.836a30.449 30.449 0 0 0 36.015 22.374v56.7a8 8 0 0 0 8 8h32a8 8 0 0 0 8-8v-24h16v24a8 8 0 0 0 8 8h32a8 8 0 0 0 8-8v-24h16v24a8 8 0 0 0 8 8h32a8 8 0 0 0 8-8v-88a8 8 0 0 0 -4.422-7.155l-16-8a8 8 0 0 0 -7.156 0l-16 8a8 8 0 0 0 -4.422 7.155v24h-16v-24a8 8 0 0 0 -4.422-7.155l-4.506-2.253a23.915 23.915 0 0 0 .928-6.592v-48a8 8 0 0 0 -1.685-4.912l-56-72a8 8 0 0 0 -6.315-3.088h-192a8 8 0 0 0 -8 8v80a8 8 0 0 0 8 8zm216 52.65v19.35h-16v-24a8 8 0 0 0 -4.422-7.155l-16-8a7.982 7.982 0 0 0 -3.81-.831 54.871 54.871 0 0 0 -7.585-23.259l-14.109-23.515 13.262-13.263 24.664 30.829v13.194a40.051 40.051 0 0 0 24 36.65zm-32 75.35h-16v-57.91a30.34 30.34 0 0 0 8-20.552v-.594l8 4zm16-32v-8h16v8zm48 32h-16v-72a23.863 23.863 0 0 0 13.613-4.249l2.387 1.193zm48-75.056 8-4 8 4v75.056h-16zm-16 35.056v8h-16v-8zm-272-168h180.087l51.913 66.745v45.255a7.951 7.951 0 0 1 -1.576 4.748 7.9 7.9 0 0 0 -.525.637 7.973 7.973 0 0 1 -5.899 2.615 24.027 24.027 0 0 1 -24-24v-16a8 8 0 0 0 -1.753-5l-32-40a8 8 0 0 0 -11.9-.659l-24 24a8 8 0 0 0 -1.2 9.773l17.323 28.871a38.872 38.872 0 0 1 5.53 19.993v12.56a14.462 14.462 0 0 1 -28.492 3.507l-3.747-14.985a7.994 7.994 0 0 0 -2.1-3.717l-48-48a8 8 0 0 0 -5.661-2.343h-64z"/></g></svg>